<svg width="75" height="75" viewBox="0 0 75 75" xmlns="http://www.w3.org/2000/svg"><title>world/block</title><g fill="none"><path fill="#0072CE" d="M0 75h75V0H0z"/><path fill="#FFF" d="M47.044 55.61h2.763v11.049h2.523v-11.05h2.763v-1.095h-8.049zm11.996 0h2.762v11.049h2.524v-11.05h2.762v-1.095H59.04zm-22.221 6.785l1.34-3.938 1.26 3.938h-2.6zm3.965 4.264h2.614l-3.885-12.145h-1.607l-4.134 12.145h1.595l1.083-3.182h3.316l1.018 3.182zM62.736 9.427c1.622 0 2.631 2.121 2.633 4.999-.002 2.81-.965 4.886-2.521 4.967h-.926V9.427h.814zM59.4 8.341v12.145h3.832c2.947 0 4.66-2.262 4.66-6.068 0-3.79-1.712-6.076-4.66-6.076H59.4zm-21.33 6.091V9.428h.673c1.373 0 1.936.956 1.936 2.462 0 1.706-.679 2.543-1.936 2.543h-.674zm5.915 6.054l-2.641-5.37c1.278-.521 1.88-1.549 1.88-3.225 0-2.384-1.38-3.55-4.437-3.55h-3.241v12.145h2.523V15.52l.781-.001 2.444 4.968h2.691zM16.99 8.341l-1.547 6.746-1.577-6.746h-1.269l-1.546 6.749-1.578-6.75H6.974l2.84 12.145h1.269l1.575-6.876 1.548 6.876h1.269l2.87-12.145zm31.677 35.232h2.524V37.56h4.19v-1.086h-4.19v-3.96h4.898v-1.086h-7.422zm-22.369-.913c-1.143 0-1.92-1.02-1.921-5.16 0-4.14.778-5.16 1.92-5.16 1.144 0 1.921 1.02 1.922 5.16 0 4.14-.778 5.16-1.921 5.16m4.689-5.169c-.005-1.992-.484-3.61-1.385-4.693-.838-1.006-1.924-1.538-3.304-1.538s-2.466.532-3.304 1.538c-.902 1.082-1.38 2.701-1.385 4.693v.019c.005 1.992.483 3.61 1.385 4.693.838 1.006 1.923 1.538 3.304 1.538 1.38 0 2.466-.532 3.304-1.538.901-1.082 1.38-2.701 1.384-4.693v-.019M14.165 60.06h-3.3v-5.546H8.341v12.145h2.524v-5.502h3.3v5.502h2.517V54.514h-2.517zm15.532-5.546l-2.813 5.203-2.844-5.203h-2.728l3.578 6.51v5.635h2.544v-5.55l3.555-6.595zM55.624 19.4h-4.433V8.34h-2.524v12.145h6.957zm-29.326.174c-1.143 0-1.92-1.02-1.921-5.16 0-4.14.778-5.161 1.92-5.161 1.144 0 1.921 1.02 1.922 5.16 0 4.14-.778 5.16-1.921 5.16m4.689-5.169c-.005-1.992-.484-3.61-1.385-4.693-.838-1.006-1.924-1.538-3.304-1.538s-2.466.532-3.304 1.538c-.902 1.082-1.38 2.701-1.385 4.693v.018c.005 1.992.483 3.611 1.385 4.693.838 1.006 1.923 1.538 3.304 1.538 1.38 0 2.466-.532 3.304-1.538.901-1.082 1.38-2.7 1.384-4.693v-.018m37.712 51.2c.222 0 .338-.098.338-.284v-.01c0-.204-.125-.275-.338-.275h-.249v.57h.249zm-.676-.898h.685c.453 0 .747.187.747.587v.009c0 .293-.17.453-.4.525l.515.826h-.444l-.472-.755h-.204v.755h-.427v-1.947zm2.294.996c0-.97-.676-1.645-1.618-1.645-.943 0-1.619.684-1.619 1.654 0 .978.712 1.636 1.619 1.636.916 0 1.618-.676 1.618-1.645zm-3.592.009c0-1.094.871-1.974 1.974-1.974 1.12 0 1.974.871 1.974 1.965 0 1.112-.871 1.965-1.974 1.965-1.094 0-1.974-.844-1.974-1.956z"/></g></svg>